<svg width="1559" height="1440" xmlns="http://www.w3.org/2000/svg" xmlns:xlink="http://www.w3.org/1999/xlink" xml:space="preserve" overflow="hidden"><g transform="translate(-618 -517)"><g><g><g><g><path d="M79.5278 377.757 102.25 377.757 102.25 400.479 79.5278 400.479 79.5278 377.757ZM119.292 480.007 261.305 480.007 261.305 457.285 119.292 457.285 119.292 480.007ZM79.5278 480.007 102.25 480.007 102.25 457.285 79.5278 457.285 79.5278 480.007ZM119.292 440.243 261.305 440.243 261.305 417.521 119.292 417.521 119.292 440.243ZM79.5278 440.243 102.25 440.243 102.25 417.521 79.5278 417.521 79.5278 440.243ZM34.0833 292.549 744.153 292.549 744.153 525.451 34.0833 525.451 34.0833 292.549ZM56.8055 502.729 721.43 502.729 721.43 315.271 56.8055 315.271 56.8055 502.729ZM772.555 292.549 761.194 292.549 761.194 525.451 772.555 525.451 783.916 502.729 783.916 315.271 772.555 292.549ZM119.292 400.479 261.305 400.479 261.305 377.757 119.292 377.757 119.292 400.479ZM79.5278 337.993 102.25 337.993 102.25 360.715 79.5278 360.715 79.5278 337.993ZM698.708 440.243 675.986 440.243 675.986 417.521 698.708 417.521 698.708 440.243ZM698.708 337.993 675.986 337.993 675.986 360.715 698.708 360.715 698.708 337.993ZM698.708 377.757 675.986 377.757 675.986 400.479 698.708 400.479 698.708 377.757ZM698.708 480.007 675.986 480.007 675.986 457.285 698.708 457.285 698.708 480.007ZM658.944 440.243 636.222 440.243 636.222 417.521 658.944 417.521 658.944 440.243ZM658.944 337.993 636.222 337.993 636.222 360.715 658.944 360.715 658.944 337.993ZM658.944 377.757 636.222 377.757 636.222 400.479 658.944 400.479 658.944 377.757ZM658.944 480.007 636.222 480.007 636.222 457.285 658.944 457.285 658.944 480.007ZM619.18 440.243 596.458 440.243 596.458 417.521 619.18 417.521 619.18 440.243ZM619.18 337.993 596.458 337.993 596.458 360.715 619.18 360.715 619.18 337.993ZM619.18 377.757 596.458 377.757 596.458 400.479 619.18 400.479 619.18 377.757ZM619.18 480.007 596.458 480.007 596.458 457.285 619.18 457.285 619.18 480.007ZM579.417 440.243 556.694 440.243 556.694 417.521 579.417 417.521 579.417 440.243ZM579.417 337.993 556.694 337.993 556.694 360.715 579.417 360.715 579.417 337.993ZM579.417 377.757 556.694 377.757 556.694 400.479 579.417 400.479 579.417 377.757ZM579.417 480.007 556.694 480.007 556.694 457.285 579.417 457.285 579.417 480.007ZM539.653 440.243 516.93 440.243 516.93 417.521 539.653 417.521 539.653 440.243ZM539.653 337.993 516.93 337.993 516.93 360.715 539.653 360.715 539.653 337.993ZM539.653 377.757 516.93 377.757 516.93 400.479 539.653 400.479 539.653 377.757ZM539.653 480.007 516.93 480.007 516.93 457.285 539.653 457.285 539.653 480.007ZM119.292 360.715 261.305 360.715 261.305 337.993 119.292 337.993 119.292 360.715ZM441.853 338.041 410.147 338.041 389.802 384.716 368.691 338.041 336.792 338.041 370.957 406.972 334.991 480.055 366.697 480.055 388.408 429.805 411.32 480.055 443.245 480.055 407.469 407.955 441.853 338.041Z" fill="#000000" fill-rule="nonzero" fill-opacity="1" transform="matrix(1 0 0 1 743 521)"/></g></g></g><path d="M-34.375 6.875-94.4167 6.875-87.5417 0-87.5417 838.06-94.4167 831.185 151.485 831.185 151.485 844.935-101.292 844.935-101.292-6.875-34.375-6.875ZM-41.25-20.625 0 0-41.25 20.625ZM144.61 817.435 185.86 838.06 144.61 858.685Z" fill="#156082" fill-rule="nonzero" fill-opacity="1" transform="matrix(-1 0 0 1 1560.86 930)"/><text fill="#000000" fill-opacity="1" font-family="Oracle Sans,Oracle Sans_MSFontService,sans-serif" font-style="normal" font-variant="normal" font-weight="700" font-stretch="normal" font-size="64" text-anchor="start" direction="ltr" writing-mode="lr-tb" unicode-bidi="normal" text-decoration="none" transform="matrix(1 0 0 1 902.906 789)">Database Server</text><text fill="#156082" fill-opacity="1" font-family="Oracle Sans,Oracle Sans_MSFontService,sans-serif" font-style="normal" font-variant="normal" font-weight="700" font-stretch="normal" font-size="64" text-anchor="start" direction="ltr" writing-mode="lr-tb" unicode-bidi="normal" text-decoration="none" transform="matrix(1 0 0 1 663.304 1755)">XRMEM</text><text fill="#156082" fill-opacity="1" font-family="Oracle Sans,Oracle Sans_MSFontService,sans-serif" font-style="normal" font-variant="normal" font-weight="700" font-stretch="normal" font-size="64" text-anchor="start" direction="ltr" writing-mode="lr-tb" unicode-bidi="normal" text-decoration="none" transform="matrix(1 0 0 1 692.752 1824)">Cache</text><text fill="#000000" fill-opacity="1" font-family="Oracle Sans,Oracle Sans_MSFontService,sans-serif" font-style="normal" font-variant="normal" font-weight="700" font-stretch="normal" font-size="64" text-anchor="start" direction="ltr" writing-mode="lr-tb" unicode-bidi="normal" text-decoration="none" transform="matrix(1 0 0 1 926.281 1363)">Storage Server</text><text fill="#000000" fill-opacity="1" font-family="Aptos,Aptos_MSFontService,sans-serif" font-style="normal" font-variant="normal" font-weight="700" font-stretch="normal" font-size="64" text-anchor="start" direction="ltr" writing-mode="lr-tb" unicode-bidi="normal" text-decoration="none" transform="matrix(1 0 0 1 1730.97 1229)">OLTP I/O over </text><text fill="#000000" fill-opacity="1" font-family="Aptos,Aptos_MSFontService,sans-serif" font-style="normal" font-variant="normal" font-weight="700" font-stretch="normal" font-size="64" text-anchor="start" direction="ltr" writing-mode="lr-tb" unicode-bidi="normal" text-decoration="none" transform="matrix(1 0 0 1 1739.36 1298)">RDMA Fabric</text><g><g><g><path d="M822.528 1486.64 913.417 1486.64 913.417 1509.36 822.528 1509.36 822.528 1486.64ZM822.528 1560.49 913.417 1560.49 913.417 1537.76 822.528 1537.76 822.528 1560.49ZM777.083 1381.55 1487.15 1381.55 1487.15 1614.45 777.083 1614.45 777.083 1381.55ZM799.805 1591.73 1464.43 1591.73 1464.43 1404.27 799.805 1404.27 799.805 1591.73ZM1515.56 1381.55 1504.19 1381.55 1504.19 1614.45 1515.56 1614.45 1526.92 1591.73 1526.92 1404.27 1515.56 1381.55ZM822.528 1435.51 913.417 1435.51 913.417 1458.24 822.528 1458.24 822.528 1435.51ZM930.458 1486.64 1021.35 1486.64 1021.35 1509.36 930.458 1509.36 930.458 1486.64ZM930.458 1560.49 1021.35 1560.49 1021.35 1537.76 930.458 1537.76 930.458 1560.49ZM930.458 1435.51 1021.35 1435.51 1021.35 1458.24 930.458 1458.24 930.458 1435.51ZM1350.82 1560.49 1441.71 1560.49 1441.71 1537.76 1350.82 1537.76 1350.82 1560.49ZM1350.82 1509.36 1441.71 1509.36 1441.71 1486.64 1350.82 1486.64 1350.82 1509.36ZM1350.82 1458.24 1441.71 1458.24 1441.71 1435.51 1350.82 1435.51 1350.82 1458.24ZM1242.89 1560.49 1333.78 1560.49 1333.78 1537.76 1242.89 1537.76 1242.89 1560.49ZM1242.89 1509.36 1333.78 1509.36 1333.78 1486.64 1242.89 1486.64 1242.89 1509.36ZM1242.89 1458.24 1333.78 1458.24 1333.78 1435.51 1242.89 1435.51 1242.89 1458.24ZM1184.85 1427.04 1153.15 1427.04 1132.8 1473.72 1111.69 1427.04 1079.79 1427.04 1113.96 1495.97 1077.99 1569.06 1109.7 1569.06 1131.41 1518.81 1154.32 1569.06 1186.25 1569.06 1150.47 1496.95 1184.85 1427.04Z" fill="#000000" fill-rule="nonzero" fill-opacity="1"/></g></g></g><g><g><g><path d="M135.187 147 87.9374 147C84.3149 147 81.3749 149.94 81.3749 153.562L81.3749 200.812C81.3749 204.435 84.3149 207.375 87.9374 207.375L135.187 207.375C138.81 207.375 141.75 204.435 141.75 200.812L141.75 153.562C141.75 149.94 138.81 147 135.187 147ZM131.25 196.875 91.8749 196.875 91.8749 157.5 131.25 157.5 131.25 196.875ZM292.687 147 245.437 147C241.815 147 238.875 149.94 238.875 153.562L238.875 200.812C238.875 204.435 241.815 207.375 245.437 207.375L292.687 207.375C296.31 207.375 299.25 204.435 299.25 200.812L299.25 153.562C299.25 149.94 296.31 147 292.687 147ZM288.75 196.875 249.375 196.875 249.375 157.5 288.75 157.5 288.75 196.875ZM213.937 147 166.687 147C163.065 147 160.125 149.94 160.125 153.562L160.125 200.812C160.125 204.435 163.065 207.375 166.687 207.375L213.937 207.375C217.56 207.375 220.5 204.435 220.5 200.812L220.5 153.562C220.5 149.94 217.56 147 213.937 147ZM210 196.875 170.625 196.875 170.625 157.5 210 157.5 210 196.875ZM328.125 171.937 338.625 171.937 338.625 115.5 39.375 115.5 39.375 171.937 49.875 171.937C52.7756 171.937 55.125 174.3 55.125 177.187 55.125 180.075 52.7625 182.437 49.875 182.437L39.375 182.437 39.375 262.5 144.375 262.5 144.375 238.875 170.625 238.875 170.625 262.5 338.625 262.5 338.625 182.437 328.125 182.437C325.237 182.437 322.875 180.075 322.875 177.187 322.875 174.3 325.237 171.937 328.125 171.937ZM133.875 252 112.875 252 112.875 238.875 102.375 238.875 102.375 252 81.3618 252 81.3618 238.875 70.8618 238.875 70.8618 252 49.8618 252 49.8618 238.875 133.862 238.875 133.862 252ZM328.125 252 307.125 252 307.125 238.875 296.625 238.875 296.625 252 275.625 252 275.625 238.875 265.125 238.875 265.125 252 244.125 252 244.125 238.875 233.625 238.875 233.625 252 212.612 252 212.612 238.875 202.112 238.875 202.112 252 181.112 252 181.112 238.875 328.112 238.875 328.112 252ZM328.125 192.937 328.125 228.375 49.875 228.375 49.875 192.937C58.5637 192.937 65.625 185.876 65.625 177.187 65.625 168.499 58.5637 161.437 49.875 161.437L49.875 126 328.125 126 328.125 161.437C319.436 161.437 312.375 168.499 312.375 177.187 312.375 185.876 319.436 192.937 328.125 192.937Z" fill="#000000" fill-rule="nonzero" fill-opacity="1" transform="matrix(1 0 0 1 952 1576)"/></g></g></g></g></g></svg>